<mxfile host="drawio-plugin" modified="2023-04-30T17:24:02.697Z" agent="5.0 (X11; Linux x86_64) AppleWebKit/537.36 (KHTML, like Gecko) Chrome/104.0.5112.102 Safari/537.36" version="20.5.3" etag="HKAwiijMxMM27bfaKKET" type="embed"><diagram id="WC_Q8wfmY5gLsOiMizky" name="Page-1"><mxGraphModel dx="1069" dy="740" grid="1" gridSize="10" guides="1" tooltips="1" connect="1" arrows="1" fold="1" page="1" pageScale="1" pageWidth="850" pageHeight="1100" background="#ffffff" math="0" shadow="0"><root><mxCell id="0"/><mxCell id="1" parent="0"/><mxCell id="4" value="" style="edgeStyle=orthogonalEdgeStyle;rounded=0;orthogonalLoop=1;jettySize=auto;html=1;fontColor=#000000;strokeColor=#000000;entryX=0.5;entryY=0;entryDx=0;entryDy=0;" edge="1" parent="1" source="2" target="5"><mxGeometry relative="1" as="geometry"><mxPoint x="425" y="330" as="targetPoint"/></mxGeometry></mxCell><mxCell id="2" value="&lt;font color=&quot;#000000&quot;&gt;WEB LAYER&lt;br&gt;(Controller, REST Mappings)&lt;/font&gt;" style="rounded=1;whiteSpace=wrap;html=1;fillColor=#d5e8d4;strokeColor=#82b366;" vertex="1" parent="1"><mxGeometry x="205" y="210" width="440" height="60" as="geometry"/></mxCell><mxCell id="5" value="&lt;font color=&quot;#000000&quot;&gt;SERVICE LAYER&lt;/font&gt;" style="rounded=1;whiteSpace=wrap;html=1;fillColor=#f8cecc;strokeColor=#b85450;" vertex="1" parent="1"><mxGeometry x="205" y="300" width="440" height="60" as="geometry"/></mxCell><mxCell id="6" value="" style="edgeStyle=orthogonalEdgeStyle;rounded=0;orthogonalLoop=1;jettySize=auto;html=1;fontColor=#000000;strokeColor=#000000;entryX=0.5;entryY=0;entryDx=0;entryDy=0;" edge="1" source="5" parent="1" target="8"><mxGeometry relative="1" as="geometry"><mxPoint x="425" y="490" as="targetPoint"/></mxGeometry></mxCell><mxCell id="10" style="edgeStyle=orthogonalEdgeStyle;rounded=0;orthogonalLoop=1;jettySize=auto;html=1;exitX=0.5;exitY=1;exitDx=0;exitDy=0;entryX=0.5;entryY=0;entryDx=0;entryDy=0;strokeColor=#000000;fontColor=#000000;" edge="1" parent="1" source="8" target="9"><mxGeometry relative="1" as="geometry"/></mxCell><mxCell id="8" value="&lt;font color=&quot;#000000&quot;&gt;DATA SOURCE LAYER&lt;br&gt;(Data retrieval, storage)&lt;br&gt;&lt;/font&gt;" style="rounded=1;whiteSpace=wrap;html=1;fillColor=#fff2cc;strokeColor=#d6b656;" vertex="1" parent="1"><mxGeometry x="205" y="400" width="440" height="60" as="geometry"/></mxCell><mxCell id="9" value="&lt;font color=&quot;#000000&quot;&gt;DATA LAYER&lt;br&gt;(Models, serialization)&lt;br&gt;&lt;/font&gt;" style="rounded=1;whiteSpace=wrap;html=1;fillColor=#ffe6cc;strokeColor=#d79b00;" vertex="1" parent="1"><mxGeometry x="205" y="490" width="440" height="60" as="geometry"/></mxCell></root></mxGraphModel></diagram></mxfile>